<?xml version="1.0" encoding="UTF-8" standalone="no"?>
<svg
   width="705.77081"
   height="430.3183"
   viewBox="0 0 1411.5416 860.6366"
   version="1.1"
   id="svg175"
   sodipodi:docname="HID-logo.svg"
   inkscape:version="1.2.2 (732a01da63, 2022-12-09)"
   xmlns:inkscape="http://www.inkscape.org/namespaces/inkscape"
   xmlns:sodipodi="http://sodipodi.sourceforge.net/DTD/sodipodi-0.dtd"
   xmlns="http://www.w3.org/2000/svg"
   xmlns:svg="http://www.w3.org/2000/svg">
  <defs
     id="defs179" />
  <sodipodi:namedview
     id="namedview177"
     pagecolor="#ffffff"
     bordercolor="#000000"
     borderopacity="0.25"
     inkscape:showpageshadow="2"
     inkscape:pageopacity="0.0"
     inkscape:pagecheckerboard="0"
     inkscape:deskcolor="#d1d1d1"
     showgrid="false"
     inkscape:zoom="1.3930004"
     inkscape:cx="432.87857"
     inkscape:cy="222.54122"
     inkscape:window-width="1920"
     inkscape:window-height="986"
     inkscape:window-x="-11"
     inkscape:window-y="-11"
     inkscape:window-maximized="1"
     inkscape:current-layer="HID-logo" />
  <g
     id="HID-logo"
     transform="matrix(7.5443176,0,0,6.4802583,2715.9543,-1030.3611)">
    <rect
       id="Rectangle_1"
       data-name="Rectangle 1"
       width="100"
       height="100"
       transform="translate(-360,159)"
       fill="none"
       x="0"
       y="0" />
    <g
       id="UI---Tech-Yoddhas-Team"
       transform="matrix(1.0108687,0,0,1.8770187,-355.80267,163.8531)">
      <g
         id="Group-33"
         transform="translate(-17,-68)">
        <g
           id="Group-32">
          <g
             id="Group-31"
             transform="translate(17,68)">
            <g
               id="Group-19">
              <g
                 id="HID-logo-reverse">
                <g
                   id="Shape">
                  <path
                     id="Path_3"
                     data-name="Path 3"
                     d="m 165.41,5.966 a 4.382,4.382 0 1 1 4.382,4.387 4.385,4.385 0 0 1 -4.382,-4.387 z m 4.4,5.416 a 5.382,5.382 0 1 0 -3.876,-1.554 5.382,5.382 0 0 0 3.874,1.555 z M 168.669,6.41 h 1.076 l 1.518,2.69 h 1.044 l -1.772,-2.756 a 1.615,1.615 0 0 0 1.74,-1.774 1.772,1.772 0 0 0 -2.214,-1.77 h -2.341 v 6.334 h 0.949 z m 0,-0.792 V 3.686 h 1.3 c 0.664,0 1.361,0 1.361,0.919 0,0.919 -0.7,1.014 -1.519,1.014 z"
                     fill="#ffffff" />
                  <path
                     id="Path_4"
                     data-name="Path 4"
                     d="M 152.32,0 H 7.39 A 7.393,7.393 0 0 0 0,7.4 v 51.131 a 7.394,7.394 0 0 0 7.39,7.278 h 144.93 a 7.393,7.393 0 0 0 7.39,-7.4 V 7.278 A 7.394,7.394 0 0 0 152.32,0 Z M 61.72,49.838 H 44.695 v -14.4 H 33.287 v 14.42 H 16.26 V 16.022 h 17.027 v 14.42 h 11.408 v -14.42 h 17.026 z m 26.085,0 H 70.78 V 16.022 h 17.026 z m 36.539,0.119 H 96.575 V 16.022 h 27.77 c 9.739,0 18.559,7.4 18.542,17.045 -0.017,9.645 -8.802,16.89 -18.542,16.89 z M 113.38,19.073 V 46.8 c 7,0 11.016,1.142 11.016,-13.84 0,-14.982 -4.784,-13.887 -11.016,-13.887 z"
                     fill="#ffffff" />
                </g>
              </g>
            </g>
          </g>
        </g>
      </g>
    </g>
  </g>
</svg>
